<svg data-v-29081953="" xmlns="http://www.w3.org/2000/svg" viewBox="0 0 300 300"><!----><defs data-v-29081953=""><!----></defs><rect data-v-29081953="" fill="#F5EEEC" x="0" y="0" width="300px" height="300px" class="logo-background-square"></rect><defs data-v-29081953=""><!----></defs><g data-v-29081953="" id="15aa1f8e-c182-4575-bf0c-d8641501e108" fill="#392622" transform="matrix(3.8930442849164786,0,0,3.8930442849164786,108.59950990368027,129.69962783593277)"><path d="M7.49 1.13L0.50 1.13C-0.15 1.13 0.55 2.58 1.20 2.58L3.18 2.58L3.18 9.63C3.18 10.19 4.94 10.19 4.94 9.63L4.94 2.58L7.49 2.58C8.04 2.58 8.04 1.13 7.49 1.13ZM14.08 8.48C13.97 8.53 13.87 8.54 13.78 8.54C13.51 8.54 13.37 8.33 13.37 7.76L13.37 6.03C13.37 4.05 12.28 3.37 10.57 3.37C9.16 3.37 8.33 3.65 7.74 4.14C7.28 4.51 7.38 5.56 7.85 5.26C8.43 4.93 9.20 4.69 10.07 4.69C11.24 4.69 11.73 5.08 11.73 6.24L11.73 6.31C11.30 6.09 10.65 5.95 9.76 5.95C8.26 5.95 7.29 6.76 7.29 8.01C7.29 9.25 8.20 10.05 9.60 10.05C10.68 10.05 11.44 9.66 11.90 9.24C12.12 9.81 12.54 10.02 13.03 10.02C13.37 10.02 13.73 9.93 14.08 9.79C14.69 9.53 14.69 8.26 14.08 8.48ZM10.05 8.75C9.24 8.75 8.95 8.37 8.95 7.97C8.95 7.55 9.27 7.15 10.14 7.15C10.95 7.15 11.48 7.29 11.73 7.48L11.73 8.04C11.48 8.34 10.92 8.75 10.05 8.75ZM19.25 3.37C18.40 3.37 17.61 3.64 17.04 4.12L17.04 0.66C17.04 0 15.40 0.60 15.40 1.26L15.40 9.66C15.40 10.19 16.60 10.15 16.76 9.76L16.97 9.20C17.54 9.72 18.35 10.04 19.25 10.04C20.75 10.04 21.74 8.72 21.74 6.69C21.74 4.70 20.75 3.37 19.25 3.37ZM18.54 8.61C17.99 8.61 17.47 8.37 17.04 7.92L17.04 5.46C17.49 5.04 17.99 4.82 18.54 4.82C19.57 4.80 20.10 5.46 20.10 6.69C20.10 7.97 19.57 8.62 18.54 8.61ZM25.82 1.04C24.57 1.04 23.67 1.18 23.25 1.43C23.07 1.53 22.99 1.65 22.99 1.78L22.99 9.31C22.99 9.42 23.06 9.51 23.18 9.60C23.59 9.88 24.58 10.05 26.00 10.05C28.63 10.05 30.13 8.43 30.13 5.54C30.13 2.66 28.57 1.04 25.82 1.04ZM25.90 8.61C25.34 8.61 24.91 8.58 24.63 8.50L24.64 2.58C24.92 2.49 25.33 2.46 25.83 2.46C27.61 2.46 28.46 3.49 28.46 5.54C28.46 7.60 27.64 8.61 25.90 8.61ZM37.24 1.92L37.24 6.59C36.09 4.68 34.73 2.95 32.87 1.19C32.62 0.94 31.32 0.90 31.32 1.46L31.32 9.63C31.32 10.19 32.96 10.19 32.96 9.63L32.96 3.50C34.68 5.32 35.81 6.86 37.25 9.80C37.42 10.14 38.89 10.19 38.89 9.63L38.89 1.22C38.89 0.56 37.24 1.26 37.24 1.92Z"></path></g><defs data-v-29081953=""><linearGradient data-v-29081953="" gradientTransform="rotate(25)" id="0693c4e0-e288-4886-a221-eb1059a16173" x1="0%" y1="0%" x2="100%" y2="0%"><stop data-v-29081953="" offset="0%" stop-color="#894B48" stop-opacity="1"></stop><stop data-v-29081953="" offset="100%" stop-color="#D59F89" stop-opacity="1"></stop></linearGradient></defs><g data-v-29081953="" id="eede609f-0f29-4ff2-b0e6-f929fed1de97" stroke="none" fill="url(#0693c4e0-e288-4886-a221-eb1059a16173)" transform="matrix(0.5653686200788322,0,0,0.5653686200788322,40,121.7315689960584)"><path d="M0 0v100h100V0H0zm93.164 39.662H66.55V25.469H93.165v14.193zM64.499 58.308H35.501V41.706h28.998v16.602zM35.501 39.662V25.469h28.998v14.193H35.501zm-4.446-14.193h2.396v14.193H6.836V25.469h24.219zm2.396 16.237v16.602H6.836V41.706h26.615zM6.836 60.352h26.615v16.575H6.836V60.352zm28.665 0h28.998v16.575H35.501V60.352zm31.049 0h26.614v16.575H66.55V60.352zm0-2.044V41.706h26.614v16.602H66.55zM6.836 93.164v-14.18h26.615v14.18H6.836zm28.665 0v-14.18h28.998v14.18H35.501zm31.049-14.18h26.614v14.18H66.55v-14.18z"></path></g><!----></svg>