<svg data-v-d3f97b9e="" xmlns="http://www.w3.org/2000/svg" viewBox="0 0 60 60"><!----><!----><!----><!----><g data-v-d3f97b9e="" id="bc780fcf-8004-4a12-9232-2d5d4e78ddc9" transform="matrix(0.6,0,0,0.6,0,0)" stroke="none" fill="white"><path d="M0 0v100h100V0H0zm93.164 39.662H66.55V25.469H93.165v14.193zM64.499 58.308H35.501V41.706h28.998v16.602zM35.501 39.662V25.469h28.998v14.193H35.501zm-4.446-14.193h2.396v14.193H6.836V25.469h24.219zm2.396 16.237v16.602H6.836V41.706h26.615zM6.836 60.352h26.615v16.575H6.836V60.352zm28.665 0h28.998v16.575H35.501V60.352zm31.049 0h26.614v16.575H66.55V60.352zm0-2.044V41.706h26.614v16.602H66.55zM6.836 93.164v-14.18h26.615v14.18H6.836zm28.665 0v-14.18h28.998v14.18H35.501zm31.049-14.18h26.614v14.18H66.55v-14.18z"></path></g><!----></svg>