<svg data-v-29081953="" xmlns="http://www.w3.org/2000/svg" viewBox="0 0 300 300"><!----><defs data-v-29081953=""><!----></defs><rect data-v-29081953="" fill="#F5EEEC" x="0" y="0" width="300px" height="300px" class="logo-background-square"></rect><!----><defs data-v-29081953=""><linearGradient data-v-29081953="" gradientTransform="rotate(25)" id="7104f9c5-d058-404b-ac1b-fb23663f56bb" x1="0%" y1="0%" x2="100%" y2="0%"><stop data-v-29081953="" offset="0%" stop-color="#894B48" stop-opacity="1"></stop><stop data-v-29081953="" offset="100%" stop-color="#D59F89" stop-opacity="1"></stop></linearGradient></defs><g data-v-29081953="" id="1369730b-783f-4b44-8d09-8c69065e6aca" fill="url(#7104f9c5-d058-404b-ac1b-fb23663f56bb)" stroke="none" transform="matrix(2.2,0,0,2.2,39.999999999999986,39.999999999999986)"><path d="M0 0v100h100V0H0zm93.164 39.662H66.55V25.469H93.165v14.193zM64.499 58.308H35.501V41.706h28.998v16.602zM35.501 39.662V25.469h28.998v14.193H35.501zm-4.446-14.193h2.396v14.193H6.836V25.469h24.219zm2.396 16.237v16.602H6.836V41.706h26.615zM6.836 60.352h26.615v16.575H6.836V60.352zm28.665 0h28.998v16.575H35.501V60.352zm31.049 0h26.614v16.575H66.55V60.352zm0-2.044V41.706h26.614v16.602H66.55zM6.836 93.164v-14.18h26.615v14.18H6.836zm28.665 0v-14.18h28.998v14.18H35.501zm31.049-14.18h26.614v14.18H66.55v-14.18z"></path></g><!----></svg>