<svg data-v-d3f97b9e="" xmlns="http://www.w3.org/2000/svg" viewBox="0 0 487 112"><!----><!----><!----><g data-v-d3f97b9e="" id="a32904d0-be66-4b22-a9fc-4e2880ad591d" fill="black" transform="matrix(6.097560881055492,0,0,6.097560881055492,135.80622716633644,6.714092506105729)"><path d="M4.25 3.60L1.54 3.60L0.10 5.11L0.31 5.25L0.77 4.76L1.96 4.76L1.57 5.39L1.57 5.39Q0.49 11.31 0.12 11.60L0.12 11.60L-0.77 12.52L-0.70 12.68L2.98 12.69L2.98 12.69Q3.68 12.22 5.01 11.00L5.01 11.00L5.01 11.00Q6.45 9.95 6.52 8.96L6.52 8.96L6.52 8.96Q6.60 7.97 5.97 7.57L5.97 7.57L5.97 7.57Q5.35 7.17 4.40 7.25L4.40 7.25L4.40 7.25Q5.80 6.45 5.90 5.17L5.90 5.17L5.90 5.17Q6.00 3.90 4.25 3.60L4.25 3.60ZM2.95 4.78L2.95 4.78Q5.04 4.64 4.90 5.69L4.90 5.69L4.90 5.69Q4.76 6.74 3.93 7.22L3.93 7.22L2.50 7.20L2.95 4.78ZM3.79 8.46L3.79 8.46Q4.82 8.44 5.15 8.97L5.15 8.97L5.15 8.97Q5.48 9.50 5.03 10.27L5.03 10.27L5.03 10.27Q4.58 11.04 4.11 11.22L4.11 11.22L0.77 11.22L1.89 10.24L2.28 8.45L3.79 8.46ZM9.91 6.52L9.91 6.52Q8.98 7.02 8.02 8.07L8.02 8.07L8.02 8.07Q7.05 9.11 6.85 9.85L6.85 9.85L6.85 9.85Q6.64 10.59 7.22 11.61L7.22 11.61L7.22 11.61Q7.79 12.63 8.21 12.68L8.21 12.68L8.21 12.68Q9.11 12.04 9.67 11.63L9.67 11.63L9.67 11.63Q9.71 12.37 10.52 12.73L10.52 12.73L12.20 11.09L12.00 10.94L11.64 11.26L11.64 11.26Q11.27 11.42 11.10 11.14L11.10 11.14L11.10 11.14Q10.94 10.87 11.03 10.47L11.03 10.47L11.70 7.18L11.70 7.18Q11.81 6.68 12.20 6.51L12.20 6.51L9.91 6.52ZM8.90 7.60L10.56 7.60L10.23 8.07L10.18 8.32L9.59 11.25L9.59 11.25Q8.90 11.72 8.28 10.45L8.28 10.45L8.28 10.45Q7.66 9.17 8.90 7.60L8.90 7.60ZM15.62 3.09L15.62 3.09Q13.69 4.27 13.52 5.39L13.52 5.39L12.35 11.24L12.35 11.24Q12.23 12.32 13.10 12.71L13.10 12.71L14.72 11.40L14.64 11.27L14.64 11.27Q13.86 11.70 13.64 11.05L13.64 11.05L14.29 7.78L14.83 5.11L14.83 5.11Q15.06 3.76 15.71 3.24L15.71 3.24L15.62 3.09ZM18.42 3.09L18.42 3.09Q16.49 4.27 16.32 5.39L16.32 5.39L15.15 11.24L15.15 11.24Q15.03 12.32 15.91 12.71L15.91 12.71L17.52 11.40L17.45 11.27L17.45 11.27Q16.66 11.70 16.44 11.05L16.44 11.05L17.10 7.78L17.63 5.11L17.63 5.11Q17.86 3.76 18.51 3.24L18.51 3.24L18.42 3.09ZM28.55 4.76L27.25 6.21L26.51 10.38L26.37 11.19L26.37 11.19Q26.06 11.90 24.94 12.90L24.94 12.90L25.10 12.93L25.10 12.93Q25.52 12.66 27.35 12.71L27.35 12.71L28.70 11.43L28.56 11.31L28.56 11.31Q28.18 11.55 26.65 11.48L26.65 11.48L26.65 11.48Q27.21 11.00 27.75 10.00L27.75 10.00L28.75 4.83L28.55 4.76ZM28.85 3.57L28.85 3.57L28.85 3.57Q28.25 3.71 27.50 4.45L27.50 4.45L25.16 7.13L25.16 7.13Q23.60 3.64 23.10 3.75L23.10 3.75L23.10 3.75Q22.61 3.86 21.03 5.22L21.03 5.22L21.22 5.36L21.22 5.36Q22.31 4.57 22.70 5.38L22.70 5.38L22.70 5.38Q21.81 6.28 21.78 6.60L21.78 6.60L21.11 10.38L20.97 11.19L20.97 11.19Q20.66 11.90 19.54 12.90L19.54 12.90L19.70 12.93L19.70 12.93Q20.12 12.66 21.95 12.71L21.95 12.71L23.30 11.43L23.16 11.31L23.16 11.31Q22.78 11.55 21.25 11.48L21.25 11.48L21.25 11.48Q21.81 11.00 22.35 10.00L22.35 10.00L23.00 6.00L24.41 8.73L24.41 8.73Q24.83 9.24 24.15 9.90L24.15 9.90L24.36 10.12L25.31 9.24L25.31 9.24Q26.14 8.48 25.40 7.66L25.40 7.66L27.92 4.70L27.92 4.70Q28.81 3.98 29.62 5.30L29.62 5.30L30.69 4.13L30.69 4.13Q30.41 3.90 29.93 3.66L29.93 3.66L29.93 3.66Q29.44 3.42 28.85 3.57ZM32.00 6.60L32.00 6.60L32.00 6.60Q31.62 6.77 30.70 7.54L30.70 7.54L30.70 7.54Q29.78 8.31 29.39 9.52L29.39 9.52L29.39 9.52Q29.01 10.73 29.64 11.70L29.64 11.70L29.64 11.70Q30.27 12.67 30.87 12.75L30.87 12.75L30.87 12.75Q31.48 12.82 32.04 12.39L32.04 12.39L32.04 12.39Q32.59 11.96 33.42 10.90L33.42 10.90L33.42 10.90Q34.24 9.84 34.32 8.90L34.32 8.90L34.32 8.90Q34.40 7.96 33.87 7.30L33.87 7.30L33.87 7.30Q33.34 6.65 32.86 6.54L32.86 6.54L32.86 6.54Q32.38 6.43 32.00 6.60ZM31.45 7.67L31.45 7.67L31.45 7.67Q32.12 7.57 32.69 8.30L32.69 8.30L32.69 8.30Q33.25 9.03 33.17 9.85L33.17 9.85L33.17 9.85Q33.10 10.67 32.68 11.09L32.68 11.09L32.68 11.09Q32.25 11.50 31.60 11.43L31.60 11.43L31.60 11.43Q30.95 11.35 30.61 10.31L30.61 10.31L30.61 10.31Q30.26 9.27 30.52 8.52L30.52 8.52L30.52 8.52Q30.77 7.78 31.45 7.67ZM36.01 6.51L34.47 7.80L34.60 8.00L35.07 7.64L35.07 7.64Q35.62 7.67 35.34 8.76L35.34 8.76L34.78 11.57L34.78 11.57Q34.60 12.58 35.36 12.71L35.36 12.71L36.91 11.44L36.80 11.31L36.33 11.64L36.33 11.64Q36.09 11.53 36.29 10.62L36.29 10.62L36.80 8.05L37.60 7.63L37.60 7.63Q38.99 7.32 38.51 9.03L38.51 9.03L38.00 11.54L38.00 11.54Q37.80 12.54 38.34 12.69L38.34 12.69L40.09 11.43L39.99 11.25L39.52 11.62L39.52 11.62Q39.29 11.59 39.45 10.81L39.45 10.81L40.00 8.10L40.00 8.10Q40.16 7.18 39.67 6.79L39.67 6.79L39.67 6.79Q39.17 6.41 38.55 6.51L38.55 6.51L36.81 7.73L36.81 7.73Q36.89 6.64 36.01 6.51L36.01 6.51ZM42.88 3.80L41.41 4.94L41.41 4.94Q42.13 5.07 41.98 6.04L41.98 6.04L43.46 5.02L43.46 5.02Q43.68 4.12 42.88 3.80L42.88 3.80ZM42.46 6.44L40.50 7.82L40.58 8.07L41.06 7.77L41.06 7.77Q41.42 7.77 41.13 8.80L41.13 8.80L40.58 11.58L40.58 11.58Q40.46 12.58 41.20 12.71L41.20 12.71L42.81 11.40L42.68 11.25L42.23 11.59L42.23 11.59Q41.86 11.57 42.11 10.53L42.11 10.53L42.68 7.64L42.68 7.64Q42.88 6.57 42.46 6.44L42.46 6.44ZM46.98 3.93L46.98 3.93Q46.71 3.99 45.96 4.59L45.96 4.59L45.96 4.59Q45.21 5.20 45.02 5.85L45.02 5.85L44.87 6.68L44.54 6.70L43.27 8.19L43.47 8.35L43.47 8.35Q43.97 7.64 44.68 7.79L44.68 7.79L44.00 11.16L44.00 11.16Q43.78 12.24 44.76 12.77L44.76 12.77L46.57 11.21L46.44 10.99L46.44 10.99Q45.33 11.88 45.34 10.77L45.34 10.77L45.95 7.71L46.69 7.71L47.84 6.71L47.82 6.51L46.11 6.51L46.14 6.38L46.42 4.98L46.42 4.98Q46.47 4.58 47.09 4.07L47.09 4.07L46.98 3.93ZM49.94 6.60L49.94 6.60L49.94 6.60Q49.55 6.77 48.63 7.54L48.63 7.54L48.63 7.54Q47.71 8.31 47.33 9.52L47.33 9.52L47.33 9.52Q46.95 10.73 47.58 11.70L47.58 11.70L47.58 11.70Q48.21 12.67 48.81 12.75L48.81 12.75L48.81 12.75Q49.42 12.82 49.97 12.39L49.97 12.39L49.97 12.39Q50.53 11.96 51.35 10.90L51.35 10.90L51.35 10.90Q52.18 9.84 52.26 8.90L52.26 8.90L52.26 8.90Q52.34 7.96 51.81 7.30L51.81 7.30L51.81 7.30Q51.28 6.65 50.80 6.54L50.80 6.54L50.80 6.54Q50.32 6.43 49.94 6.60ZM49.38 7.67L49.38 7.67L49.38 7.67Q50.06 7.57 50.62 8.30L50.62 8.30L50.62 8.30Q51.19 9.03 51.11 9.85L51.11 9.85L51.11 9.85Q51.04 10.67 50.61 11.09L50.61 11.09L50.61 11.09Q50.19 11.50 49.54 11.43L49.54 11.43L49.54 11.43Q48.89 11.35 48.55 10.31L48.55 10.31L48.55 10.31Q48.20 9.27 48.45 8.52L48.45 8.52L48.45 8.52Q48.71 7.78 49.38 7.67ZM54.22 6.58L52.47 8.23L52.62 8.37L52.62 8.37Q53.20 7.79 53.43 7.91L53.43 7.91L53.43 7.91Q53.66 8.04 53.42 8.80L53.42 8.80L52.73 11.58L52.73 11.58Q52.62 12.56 53.29 12.71L53.29 12.71L54.97 11.40L54.90 11.27L54.90 11.27Q54.09 11.70 54.24 11.05L54.24 11.05L54.91 8.37L54.91 8.37Q55.16 7.57 55.52 7.54L55.52 7.54L55.52 7.54Q55.88 7.51 56.09 8.24L56.09 8.24L57.47 7.35L57.47 7.35Q57.20 6.67 56.72 6.55L56.72 6.55L56.72 6.55Q56.24 6.43 55.81 6.75L55.81 6.75L55.81 6.75Q55.38 7.07 55.02 7.58L55.02 7.58L55.02 7.58Q55.11 6.70 54.22 6.58L54.22 6.58Z"></path></g><!----><g data-v-d3f97b9e="" id="67065a7b-13c5-493e-824c-bc5c70b4fdb4" transform="matrix(1.1111111111111112,0,0,1.1111111111111112,0.44444444444444287,0.44444444444444287)" stroke="none" fill="black"><path d="M84.82 14.131h-.004l-2.579-2.502-.123.115C73.115 4.17 61.859 0 50 0 38.144 0 26.888 4.17 17.886 11.744l-.123-.115-2.579 2.502C5.393 23.637 0 36.375 0 50c0 13.629 5.393 26.367 15.184 35.869v.003l2.579 2.503.123-.123C26.888 95.83 38.144 100 50 100c11.859 0 23.115-4.17 32.114-11.748l.123.123 2.579-2.503.004-.003C94.607 76.367 100 63.629 100 50c0-13.625-5.393-26.363-15.18-35.869zM50 7.407c9.78 0 19.101 3.31 26.646 9.379C69.101 22.858 59.78 26.168 50 26.168s-19.101-3.31-26.642-9.382C30.899 10.717 40.22 7.407 50 7.407zm0 85.186c-9.78 0-19.101-3.31-26.642-9.383C30.899 77.142 40.22 73.832 50 73.832s19.101 3.31 26.646 9.378C69.101 89.283 59.78 92.593 50 92.593zm32.042-14.54C73.058 70.529 61.816 66.425 50 66.425c-11.812 0-23.054 4.104-32.042 11.628C11.133 70.283 7.407 60.445 7.407 50c0-10.449 3.726-20.287 10.551-28.049C26.946 29.474 38.188 33.575 50 33.575c11.816 0 23.058-4.102 32.042-11.624 6.829 7.762 10.551 17.6 10.551 28.049s-3.722 20.283-10.551 28.053z"></path></g><!----></svg>