<svg data-v-29081953="" xmlns="http://www.w3.org/2000/svg" viewBox="0 0 300 300"><!----><defs data-v-29081953=""><!----></defs>
<rect data-v-29081953="" fill-opacity="0" fill="#9B6E10" x="0" y="0" width="300px" height="300px" class="logo-background-square"></rect>
<defs data-v-29081953=""><!----></defs>
<g data-v-29081953="" id="f67c091a-dd00-4cf1-8afa-e9479a1d9106" fill="#000000" transform="matrix(2.835616364267,0,0,2.835616364267,97.0371227320025,127.28671294926389)"><path d="M4.25 3.60L1.54 3.60L0.10 5.11L0.31 5.25L0.77 4.76L1.96 4.76L1.57 5.39L1.57 5.39Q0.49 11.31 0.12 11.60L0.12 11.60L-0.77 12.52L-0.70 12.68L2.98 12.69L2.98 12.69Q3.68 12.22 5.01 11.00L5.01 11.00L5.01 11.00Q6.45 9.95 6.52 8.96L6.52 8.96L6.52 8.96Q6.60 7.97 5.97 7.57L5.97 7.57L5.97 7.57Q5.35 7.17 4.40 7.25L4.40 7.25L4.40 7.25Q5.80 6.45 5.90 5.17L5.90 5.17L5.90 5.17Q6.00 3.90 4.25 3.60L4.25 3.60ZM2.95 4.78L2.95 4.78Q5.04 4.64 4.90 5.69L4.90 5.69L4.90 5.69Q4.76 6.74 3.93 7.22L3.93 7.22L2.50 7.20L2.95 4.78ZM3.79 8.46L3.79 8.46Q4.82 8.44 5.15 8.97L5.15 8.97L5.15 8.97Q5.48 9.50 5.03 10.27L5.03 10.27L5.03 10.27Q4.58 11.04 4.11 11.22L4.11 11.22L0.77 11.22L1.89 10.24L2.28 8.45L3.79 8.46ZM9.91 6.52L9.91 6.52Q8.98 7.02 8.02 8.07L8.02 8.07L8.02 8.07Q7.05 9.11 6.85 9.85L6.85 9.85L6.85 9.85Q6.64 10.59 7.22 11.61L7.22 11.61L7.22 11.61Q7.79 12.63 8.21 12.68L8.21 12.68L8.21 12.68Q9.11 12.04 9.67 11.63L9.67 11.63L9.67 11.63Q9.71 12.37 10.52 12.73L10.52 12.73L12.20 11.09L12.00 10.94L11.64 11.26L11.64 11.26Q11.27 11.42 11.10 11.14L11.10 11.14L11.10 11.14Q10.94 10.87 11.03 10.47L11.03 10.47L11.70 7.18L11.70 7.18Q11.81 6.68 12.20 6.51L12.20 6.51L9.91 6.52ZM8.90 7.60L10.56 7.60L10.23 8.07L10.18 8.32L9.59 11.25L9.59 11.25Q8.90 11.72 8.28 10.45L8.28 10.45L8.28 10.45Q7.66 9.17 8.90 7.60L8.90 7.60ZM15.62 3.09L15.62 3.09Q13.69 4.27 13.52 5.39L13.52 5.39L12.35 11.24L12.35 11.24Q12.23 12.32 13.10 12.71L13.10 12.71L14.72 11.40L14.64 11.27L14.64 11.27Q13.86 11.70 13.64 11.05L13.64 11.05L14.29 7.78L14.83 5.11L14.83 5.11Q15.06 3.76 15.71 3.24L15.71 3.24L15.62 3.09ZM18.42 3.09L18.42 3.09Q16.49 4.27 16.32 5.39L16.32 5.39L15.15 11.24L15.15 11.24Q15.03 12.32 15.91 12.71L15.91 12.71L17.52 11.40L17.45 11.27L17.45 11.27Q16.66 11.70 16.44 11.05L16.44 11.05L17.10 7.78L17.63 5.11L17.63 5.11Q17.86 3.76 18.51 3.24L18.51 3.24L18.42 3.09ZM28.55 4.76L27.25 6.21L26.51 10.38L26.37 11.19L26.37 11.19Q26.06 11.90 24.94 12.90L24.94 12.90L25.10 12.93L25.10 12.93Q25.52 12.66 27.35 12.71L27.35 12.71L28.70 11.43L28.56 11.31L28.56 11.31Q28.18 11.55 26.65 11.48L26.65 11.48L26.65 11.48Q27.21 11.00 27.75 10.00L27.75 10.00L28.75 4.83L28.55 4.76ZM28.85 3.57L28.85 3.57L28.85 3.57Q28.25 3.71 27.50 4.45L27.50 4.45L25.16 7.13L25.16 7.13Q23.60 3.64 23.10 3.75L23.10 3.75L23.10 3.75Q22.61 3.86 21.03 5.22L21.03 5.22L21.22 5.36L21.22 5.36Q22.31 4.57 22.70 5.38L22.70 5.38L22.70 5.38Q21.81 6.28 21.78 6.60L21.78 6.60L21.11 10.38L20.97 11.19L20.97 11.19Q20.66 11.90 19.54 12.90L19.54 12.90L19.70 12.93L19.70 12.93Q20.12 12.66 21.95 12.71L21.95 12.71L23.30 11.43L23.16 11.31L23.16 11.31Q22.78 11.55 21.25 11.48L21.25 11.48L21.25 11.48Q21.81 11.00 22.35 10.00L22.35 10.00L23.00 6.00L24.41 8.73L24.41 8.73Q24.83 9.24 24.15 9.90L24.15 9.90L24.36 10.12L25.31 9.24L25.31 9.24Q26.14 8.48 25.40 7.66L25.40 7.66L27.92 4.70L27.92 4.70Q28.81 3.98 29.62 5.30L29.62 5.30L30.69 4.13L30.69 4.13Q30.41 3.90 29.93 3.66L29.93 3.66L29.93 3.66Q29.44 3.42 28.85 3.57ZM32.00 6.60L32.00 6.60L32.00 6.60Q31.62 6.77 30.70 7.54L30.70 7.54L30.70 7.54Q29.78 8.31 29.39 9.52L29.39 9.52L29.39 9.52Q29.01 10.73 29.64 11.70L29.64 11.70L29.64 11.70Q30.27 12.67 30.87 12.75L30.87 12.75L30.87 12.75Q31.48 12.82 32.04 12.39L32.04 12.39L32.04 12.39Q32.59 11.96 33.42 10.90L33.42 10.90L33.42 10.90Q34.24 9.84 34.32 8.90L34.32 8.90L34.32 8.90Q34.40 7.96 33.87 7.30L33.87 7.30L33.87 7.30Q33.34 6.65 32.86 6.54L32.86 6.54L32.86 6.54Q32.38 6.43 32.00 6.60ZM31.45 7.67L31.45 7.67L31.45 7.67Q32.12 7.57 32.69 8.30L32.69 8.30L32.69 8.30Q33.25 9.03 33.17 9.85L33.17 9.85L33.17 9.85Q33.10 10.67 32.68 11.09L32.68 11.09L32.68 11.09Q32.25 11.50 31.60 11.43L31.60 11.43L31.60 11.43Q30.95 11.35 30.61 10.31L30.61 10.31L30.61 10.31Q30.26 9.27 30.52 8.52L30.52 8.52L30.52 8.52Q30.77 7.78 31.45 7.67ZM36.01 6.51L34.47 7.80L34.60 8.00L35.07 7.64L35.07 7.64Q35.62 7.67 35.34 8.76L35.34 8.76L34.78 11.57L34.78 11.57Q34.60 12.58 35.36 12.71L35.36 12.71L36.91 11.44L36.80 11.31L36.33 11.64L36.33 11.64Q36.09 11.53 36.29 10.62L36.29 10.62L36.80 8.05L37.60 7.63L37.60 7.63Q38.99 7.32 38.51 9.03L38.51 9.03L38.00 11.54L38.00 11.54Q37.80 12.54 38.34 12.69L38.34 12.69L40.09 11.43L39.99 11.25L39.52 11.62L39.52 11.62Q39.29 11.59 39.45 10.81L39.45 10.81L40.00 8.10L40.00 8.10Q40.16 7.18 39.67 6.79L39.67 6.79L39.67 6.79Q39.17 6.41 38.55 6.51L38.55 6.51L36.81 7.73L36.81 7.73Q36.89 6.64 36.01 6.51L36.01 6.51ZM42.88 3.80L41.41 4.94L41.41 4.94Q42.13 5.07 41.98 6.04L41.98 6.04L43.46 5.02L43.46 5.02Q43.68 4.12 42.88 3.80L42.88 3.80ZM42.46 6.44L40.50 7.82L40.58 8.07L41.06 7.77L41.06 7.77Q41.42 7.77 41.13 8.80L41.13 8.80L40.58 11.58L40.58 11.58Q40.46 12.58 41.20 12.71L41.20 12.71L42.81 11.40L42.68 11.25L42.23 11.59L42.23 11.59Q41.86 11.57 42.11 10.53L42.11 10.53L42.68 7.64L42.68 7.64Q42.88 6.57 42.46 6.44L42.46 6.44ZM46.98 3.93L46.98 3.93Q46.71 3.99 45.96 4.59L45.96 4.59L45.96 4.59Q45.21 5.20 45.02 5.85L45.02 5.85L44.87 6.68L44.54 6.70L43.27 8.19L43.47 8.35L43.47 8.35Q43.97 7.64 44.68 7.79L44.68 7.79L44.00 11.16L44.00 11.16Q43.78 12.24 44.76 12.77L44.76 12.77L46.57 11.21L46.44 10.99L46.44 10.99Q45.33 11.88 45.34 10.77L45.34 10.77L45.95 7.71L46.69 7.71L47.84 6.71L47.82 6.51L46.11 6.51L46.14 6.38L46.42 4.98L46.42 4.98Q46.47 4.58 47.09 4.07L47.09 4.07L46.98 3.93ZM49.94 6.60L49.94 6.60L49.94 6.60Q49.55 6.77 48.63 7.54L48.63 7.54L48.63 7.54Q47.71 8.31 47.33 9.52L47.33 9.52L47.33 9.52Q46.95 10.73 47.58 11.70L47.58 11.70L47.58 11.70Q48.21 12.67 48.81 12.75L48.81 12.75L48.81 12.75Q49.42 12.82 49.97 12.39L49.97 12.39L49.97 12.39Q50.53 11.96 51.35 10.90L51.35 10.90L51.35 10.90Q52.18 9.84 52.26 8.90L52.26 8.90L52.26 8.90Q52.34 7.96 51.81 7.30L51.81 7.30L51.81 7.30Q51.28 6.65 50.80 6.54L50.80 6.54L50.80 6.54Q50.32 6.43 49.94 6.60ZM49.38 7.67L49.38 7.67L49.38 7.67Q50.06 7.57 50.62 8.30L50.62 8.30L50.62 8.30Q51.19 9.03 51.11 9.85L51.11 9.85L51.11 9.85Q51.04 10.67 50.61 11.09L50.61 11.09L50.61 11.09Q50.19 11.50 49.54 11.43L49.54 11.43L49.54 11.43Q48.89 11.35 48.55 10.31L48.55 10.31L48.55 10.31Q48.20 9.27 48.45 8.52L48.45 8.52L48.45 8.52Q48.71 7.78 49.38 7.67ZM54.22 6.58L52.47 8.23L52.62 8.37L52.62 8.37Q53.20 7.79 53.43 7.91L53.43 7.91L53.43 7.91Q53.66 8.04 53.42 8.80L53.42 8.80L52.73 11.58L52.73 11.58Q52.62 12.56 53.29 12.71L53.29 12.71L54.97 11.40L54.90 11.27L54.90 11.27Q54.09 11.70 54.24 11.05L54.24 11.05L54.91 8.37L54.91 8.37Q55.16 7.57 55.52 7.54L55.52 7.54L55.52 7.54Q55.88 7.51 56.09 8.24L56.09 8.24L57.47 7.35L57.47 7.35Q57.20 6.67 56.72 6.55L56.72 6.55L56.72 6.55Q56.24 6.43 55.81 6.75L55.81 6.75L55.81 6.75Q55.38 7.07 55.02 7.58L55.02 7.58L55.02 7.58Q55.11 6.70 54.22 6.58L54.22 6.58Z"></path></g><defs data-v-29081953=""><!----></defs><g data-v-29081953="" id="8236ae82-402e-47d5-ba81-ce5988a68d3c" stroke="none" fill="#000000" transform="matrix(0.41853698185602,0,0,0.41853698185602,40,129.073150907199)">
<g transform="translate(15 15) scale(0.1 0.1)">
	<path style="fill:#E6E7E8;" d="M511.59,269.085c-0.265,5.826-0.794,11.741-1.589,17.567c-0.53,4.414-1.148,8.916-1.942,13.33
		c-1.148,7.415-2.825,14.742-4.679,21.981c-1.942,7.239-4.149,14.301-6.709,21.274c-2.502,7.18-5.45,14.197-8.828,21.01
		c-25.411,54.134-69.027,97.624-123.233,122.88c-6.867,3.297-13.911,6.214-21.098,8.739c-7.062,2.56-14.124,4.767-21.363,6.709
		c-1.677,0.441-3.354,0.883-5.032,1.236c-5.561,1.324-11.299,2.56-17.037,3.443c-0.097-0.012-0.194,0.02-0.265,0.088h-0.088
		c-17.008,3.019-34.292,4.203-51.553,3.531c-0.452,0.187-0.96,0.187-1.412,0c-5.373-0.065-10.738-0.449-16.066-1.148
		c-1.567,0.017-3.132-0.101-4.679-0.353c-3.972-0.441-7.857-0.971-11.741-1.677c-8.343-1.239-16.599-3.008-24.717-5.297
		C71.237,470.892-8.038,359.796,0.65,237.659c0.342-5.885,0.99-11.749,1.942-17.567c1.17-8.706,2.82-17.341,4.943-25.865
		c0.441-1.501,0.794-3.001,1.324-4.414c1.067-4.448,2.363-8.839,3.884-13.153c0.441-1.766,1.059-3.354,1.589-5.032
		c0.706-1.942,1.412-3.884,2.295-5.914c0.486-1.694,1.106-3.347,1.854-4.943C44.554,96.292,95.781,45.224,160.341,19.353
		c1.677-0.706,3.443-1.324,5.12-1.942c1.942-0.794,3.884-1.501,5.826-2.207c1.933-0.709,3.909-1.299,5.914-1.766l0.088-0.088
		c0.883-0.353,1.854-0.618,2.737-0.883c3.531-1.236,7.062-2.119,10.681-3.001l0.088-0.088c1.236-0.353,2.472-0.706,3.708-0.971
		c0.883-0.177,1.677-0.441,2.56-0.618c86.349-20.478,177.147,5.168,240.022,67.796c31.73,31.443,54.494,70.785,65.942,113.964
		c2.384,8.17,4.242,16.485,5.561,24.894c0.706,3.884,1.236,7.857,1.589,11.741c0.278,1.455,0.426,2.932,0.441,4.414
		c0.617,5.217,0.97,10.461,1.059,15.713c0.163,0.814,0.193,1.648,0.088,2.472C512.032,255.579,511.943,262.288,511.59,269.085z"/>
	<g>
		<path style="fill:#D75E72;" d="M511.59,269.085c-0.265,5.826-0.794,11.741-1.589,17.567h-0.265
			c-10.505-1.501-19.95-3.178-28.866-5.031c-3.619-0.794-7.239-1.854-10.77-2.737l-11.123,18.891
			c-1.571,2.711-4.458,4.39-7.592,4.414c-1.583-0.013-3.135-0.439-4.502-1.236c-2.031-1.177-3.508-3.116-4.105-5.386
			c-0.597-2.27-0.263-4.685,0.927-6.708l8.563-14.566c-7.768-2.207-15.448-4.679-23.04-7.327l-12.888,17.479
			c-2.941,3.857-8.415,4.678-12.359,1.854c-3.908-2.911-4.736-8.429-1.854-12.359l10.152-13.683
			c-7.503-3.09-14.83-6.356-22.069-9.887l-14.919,16.243c-1.621,1.864-3.974,2.927-6.444,2.913
			c-2.213-0.011-4.347-0.827-6.003-2.295c-3.588-3.324-3.825-8.92-0.53-12.535l11.564-12.623
			c-7.15-3.796-14.124-7.768-20.921-12.006l-16.508,14.654c-1.631,1.442-3.738,2.228-5.914,2.207
			c-2.529-0.035-4.928-1.122-6.621-3.001c-3.175-3.671-2.822-9.209,0.794-12.447l12.8-11.299
			c-6.709-4.59-13.153-9.357-19.597-14.212l-17.92,12.8c-1.485,1.089-3.278,1.677-5.12,1.677c-2.843-0.007-5.506-1.388-7.15-3.708
			c-1.384-1.887-1.949-4.253-1.567-6.562c0.382-2.309,1.679-4.367,3.598-5.708l14.036-10.063
			c-6.179-5.208-12.182-10.593-18.008-16.154l-19.244,10.947c-2.746,1.594-6.136,1.592-8.881-0.005
			c-2.744-1.597-4.421-4.544-4.392-7.719c0.029-3.175,1.76-6.09,4.533-7.637l14.919-8.474c-5.561-5.826-11.034-11.741-16.243-17.832
			l-20.215,8.739c-1.104,0.523-2.31,0.794-3.531,0.794c-4.167-0.037-7.745-2.972-8.595-7.052c-0.85-4.079,1.258-8.2,5.064-9.897
			l15.713-6.797c-4.943-6.356-9.622-12.888-14.212-19.597l-21.01,6.709c-0.887,0.275-1.808,0.424-2.737,0.441
			c-4.355-0.029-8.043-3.217-8.702-7.522c-0.659-4.305,1.907-8.45,6.054-9.78l16.331-5.12c-4.237-6.886-8.298-13.771-12.182-20.921
			l-21.539,4.414c-0.583,0.102-1.173,0.161-1.766,0.177c-4.181-0.041-7.774-2.974-8.651-7.062
			c-0.966-4.776,2.113-9.434,6.886-10.417l16.508-3.354c-7.587-15.7-14.191-31.856-19.774-48.375c0-0.177-0.088-0.265-0.088-0.441
			c3.531-1.236,7.062-2.119,10.681-3.001l0.088-0.088c1.236-0.353,2.472-0.706,3.708-0.971c0.883-0.177,1.677-0.441,2.56-0.618
			c5.079,14.974,11.063,29.625,17.92,43.873l9.446-10.681c2.081-2.369,5.267-3.447,8.359-2.827c3.091,0.619,5.617,2.842,6.624,5.829
			c1.007,2.988,0.343,6.286-1.742,8.65l-14.036,15.801c3.443,6.356,7.062,12.623,10.858,18.714l8.21-11.388
			c1.829-2.555,4.882-3.939,8.009-3.632c3.127,0.307,5.853,2.259,7.15,5.12c1.298,2.861,0.97,6.198-0.859,8.752l-12.27,17.126
			c4.149,6.003,8.298,11.829,12.712,17.567l6.974-12.27c2.392-4.238,7.763-5.739,12.006-3.354c4.232,2.44,5.725,7.823,3.354,12.094
			l-10.417,18.273c4.679,5.473,9.622,10.77,14.565,16.066l5.561-12.888c1.963-4.44,7.146-6.458,11.594-4.513
			c4.448,1.944,6.487,7.119,4.561,11.575l-8.298,19.156c5.208,5.032,10.505,9.887,16.066,14.566l4.149-13.33
			c1.509-4.627,6.47-7.168,11.107-5.687c4.636,1.481,7.207,6.427,5.754,11.072l-6.356,20.039
			c5.738,4.414,11.564,8.739,17.479,12.888l2.825-13.947c0.619-3.103,2.85-5.637,5.85-6.644c2.999-1.007,6.308-0.331,8.673,1.77
			s3.425,5.308,2.779,8.405l-4.237,20.657c6.179,3.796,12.447,7.415,18.803,10.858l1.324-14.036
			c0.463-4.851,4.771-8.408,9.622-7.945s8.408,4.771,7.945,9.622l-2.03,21.01c6.532,3.178,13.065,6.179,19.774,9.004l-0.088-14.301
			c-0.028-2.334,0.881-4.583,2.523-6.242c1.643-1.659,3.882-2.59,6.216-2.586h0.088c4.84,0.003,8.775,3.9,8.828,8.739l0.177,21.363
			c6.709,2.383,13.683,4.59,20.568,6.621l-1.589-14.212c-0.36-3.145,0.989-6.243,3.537-8.12c2.548-1.878,5.907-2.249,8.804-0.973
			c2.897,1.276,4.89,4.004,5.226,7.152l2.383,21.01c3.619,0.883,7.327,1.942,11.034,2.737
			C492.876,266.172,501.703,267.673,511.59,269.085z"/>
		<path style="fill:#D75E72;" d="M322.503,456.406l-17.126,13.594c1.324,3.443,2.825,6.797,4.149,10.328
			c2.825,8.033,5.297,15.713,7.503,22.863c0.072,0.198,0.102,0.408,0.088,0.618c-5.561,1.324-11.299,2.56-17.037,3.443
			c-0.097-0.012-0.194,0.02-0.265,0.088h-0.088c-1.942-6.708-4.237-13.771-6.797-21.098c-1.324-3.531-2.825-6.974-4.237-10.417
			l-21.186,0.617h-0.265c-4.81,0.007-8.738-3.842-8.828-8.651c-0.075-2.334,0.789-4.601,2.398-6.293
			c1.609-1.692,3.83-2.669,6.165-2.711l14.389-0.441c-3.09-6.532-6.179-13.065-9.534-19.509l-21.186,2.825
			c-0.378,0.073-0.763,0.102-1.148,0.088c-4.646-0.004-8.493-3.61-8.795-8.246c-0.303-4.636,3.042-8.712,7.648-9.321l14.124-1.854
			c-3.708-6.268-7.592-12.359-11.652-18.361l-20.48,4.943c-0.664,0.169-1.345,0.258-2.03,0.265c-4.483,0.036-8.279-3.299-8.822-7.75
			c-0.542-4.451,2.342-8.599,6.703-9.641l13.683-3.354c-4.326-5.738-8.739-11.476-13.418-17.037l-19.774,7.062
			c-0.932,0.346-1.919,0.525-2.913,0.53c-4.289-0.036-7.939-3.131-8.676-7.356c-0.737-4.225,1.651-8.373,5.674-9.858l13.33-4.679
			c-4.855-5.297-9.887-10.505-15.095-15.537l-18.979,9.094c-1.2,0.516-2.49,0.786-3.796,0.794c-3.406,0.036-6.531-1.886-8.033-4.943
			c-2.031-4.417-0.196-9.649,4.149-11.829l12.623-6.003c-5.385-4.767-10.947-9.357-16.596-13.859l-17.831,10.946
			c-1.984,1.24-4.384,1.63-6.658,1.082c-2.275-0.548-4.233-1.987-5.436-3.995c-2.578-4.145-1.314-9.594,2.825-12.182l11.917-7.239
			c-5.826-4.237-11.829-8.298-17.92-12.182l-16.596,12.8c-2.489,1.962-5.84,2.437-8.775,1.243c-2.936-1.194-5.004-3.873-5.417-7.015
			c-0.413-3.142,0.894-6.264,3.423-8.176l11.211-8.651c-6.268-3.531-12.712-6.886-19.156-10.063l-15.272,14.477
			c-1.651,1.555-3.824,2.436-6.091,2.472c-3.613-0.019-6.853-2.227-8.192-5.583c-1.338-3.356-0.507-7.188,2.101-9.688l10.152-9.71
			c-6.532-2.825-13.241-5.561-20.039-8.121l-13.683,16.066c-2.05,2.397-5.223,3.518-8.324,2.941
			c-3.101-0.577-5.658-2.764-6.709-5.738s-0.435-6.282,1.615-8.679l9.269-10.858c-14.494-4.573-29.229-8.345-44.138-11.299
			c0.342-5.885,0.99-11.749,1.942-17.567c0.177,0,0.353,0.088,0.53,0.088c16.611,3.166,33.004,7.383,49.081,12.623l1.059-16.861
			c0.301-4.869,4.487-8.574,9.356-8.282c4.869,0.292,8.582,4.472,8.299,9.341l-1.412,21.981c7.592,2.825,15.007,5.914,22.422,9.181
			l2.825-16.949c0.828-4.779,5.36-7.991,10.144-7.19c4.783,0.801,8.021,5.315,7.247,10.103l-3.619,21.804
			c7.15,3.619,14.301,7.415,21.274,11.388l4.59-16.508c0.841-3.056,3.252-5.429,6.321-6.22c3.069-0.791,6.327,0.12,8.54,2.39
			c2.213,2.269,3.043,5.549,2.176,8.597l-6.003,21.274c6.797,4.326,13.506,8.828,20.039,13.594l6.268-16.066
			c1.841-4.497,6.943-6.695,11.476-4.943c2.199,0.84,3.964,2.533,4.895,4.694c0.931,2.161,0.948,4.607,0.048,6.782l-8.121,20.657
			c6.268,5.032,12.447,10.152,18.45,15.537l8.033-15.36c2.276-4.304,7.601-5.961,11.917-3.708c4.258,2.314,5.901,7.596,3.708,11.917
			l-10.24,19.597c5.738,5.65,11.388,11.388,16.772,17.302l9.446-14.212c2.719-4.037,8.187-5.121,12.241-2.427
			c4.054,2.694,5.171,8.156,2.501,12.226l-12.182,18.361c5.12,6.179,10.063,12.535,14.83,19.068l10.858-13.241
			c3.127-3.752,8.699-4.271,12.465-1.161c3.766,3.11,4.31,8.679,1.217,12.46l-14.036,16.949c4.414,6.709,8.739,13.506,12.8,20.48
			l12.094-11.917c2.252-2.222,5.521-3.07,8.569-2.223c3.048,0.847,5.411,3.26,6.193,6.326s-0.135,6.316-2.404,8.52l-15.448,15.183
			c3.708,7.15,7.15,14.389,10.505,21.804l13.153-10.505c2.475-1.976,5.817-2.48,8.765-1.322c2.948,1.158,5.053,3.802,5.521,6.935
			C326.224,451.293,324.984,454.437,322.503,456.406L322.503,456.406z"/>
	</g>
</g>
<g transform="translate(0 0) scale(0.2 0.2)">
	<g>
		<path d="M500.281,443.719l-133.48-133.48C388.546,277.485,400,239.555,400,200C400,89.72,310.28,0,200,0S0,89.72,0,200
			s89.72,200,200,200c39.556,0,77.486-11.455,110.239-33.198l36.895,36.895c0.005,0.005,0.01,0.01,0.016,0.016l96.568,96.568
			C451.276,507.838,461.319,512,472,512c10.681,0,20.724-4.162,28.278-11.716C507.837,492.731,512,482.687,512,472
			S507.837,451.269,500.281,443.719z M305.536,345.727c0,0.001-0.001,0.001-0.002,0.002C274.667,368.149,238.175,380,200,380
			c-99.252,0-180-80.748-180-180S100.748,20,200,20s180,80.748,180,180c0,38.175-11.851,74.667-34.272,105.535
			C334.511,320.988,320.989,334.511,305.536,345.727z M326.516,354.793c10.35-8.467,19.811-17.928,28.277-28.277l28.371,28.371
			c-8.628,10.183-18.094,19.65-28.277,28.277L326.516,354.793z M486.139,486.139c-3.78,3.78-8.801,5.861-14.139,5.861
			s-10.359-2.081-14.139-5.861l-88.795-88.795c10.127-8.691,19.587-18.15,28.277-28.277l88.798,88.798
			C489.919,461.639,492,466.658,492,472C492,477.342,489.919,482.361,486.139,486.139z"/>
	</g>
	<g>
		<path d="M200,40c-88.225,0-160,71.775-160,160s71.775,160,160,160s160-71.775,160-160S288.225,40,200,40z M200,340
			c-77.196,0-140-62.804-140-140S122.804,60,200,60s140,62.804,140,140S277.196,340,200,340z"/>
	</g>
</g>
</g><!---->
</svg>